<?xml version="1.0" encoding="UTF-8"?>
<svg width="54px" height="76px" viewBox="0 0 54 76" version="1.1" xmlns="http://www.w3.org/2000/svg" xmlns:xlink="http://www.w3.org/1999/xlink">
    <title>Group 2</title>
    <g id="Page-1" stroke="none" stroke-width="1" fill="none" fill-rule="evenodd">
        <g id="Group-2" fill-rule="nonzero">
            <g id="Vector" transform="translate(5.000000, 0.000000)" fill="#ECEFF1">
                <path d="M43.375,15.2811 L43.375,2.6875 C43.375,1.97263 43.0901,1.29 42.5903,0.78475 C42.0904,0.2795 41.4024,0 40.6875,0 L3.0625,0 C1.579,0 0.375,1.204 0.375,2.6875 L0.375,15.2811 C0.375,21.7419 2.8905,27.8156 7.45925,32.3844 L12.6999,37.625 L7.45925,42.8656 C2.8905,47.4398 0.375,53.5081 0.375,59.9689 L0.375,72.5679 C0.375,73.2828 0.659875,73.9654 1.15975,74.4706 C1.65963,74.9759 2.34763,75.2554 3.0625,75.2554 L40.6875,75.25 C42.171,75.25 43.375,74.046 43.375,72.5625 L43.375,59.9635 C43.375,53.5028 40.8595,47.429 36.2908,42.8602 L31.0501,37.625 L36.2908,32.379 C40.8595,27.8156 43.375,21.7419 43.375,15.2811 Z" id="Path"></path>
            </g>
            <g id="Group-1" transform="translate(10.000000, 10.000000)" fill="#B0BEC5">
                <path d="M0.75,0.75 L0.75,5.28112 C0.75,10.3067 2.7065,15.026 6.25938,18.5842 C6.25938,18.5842 16.875,26.9155 16.875,27.625 C16.875,26.9155 27.4906,18.5789 27.4906,18.5789 C31.0435,15.026 33,10.3014 33,5.28112 L33,0.75 L0.75,0.75 Z" id="Path"></path>
                <path d="M0.75,59.875 L0.75,55.3439 C0.75,50.3182 2.7065,45.599 6.25938,42.0408 C6.25938,42.0461 16.875,33.7095 16.875,33 C16.875,33.7095 27.4906,42.0461 27.4906,42.0461 C31.0435,45.599 33,50.3236 33,55.3493 L33,59.875 L0.75,59.875 Z" id="Path"></path>
            </g>
            <g id="Group" fill="#607D8B">
                <path d="M2.6875,5.375 C1.204,5.375 0,4.17637 0,2.6875 C0,1.20938 1.204,0 2.6875,0 L51.0625,0 C52.546,0 53.75,1.204 53.75,2.6875 C53.75,4.171 52.546,5.375 51.0625,5.375 L2.6875,5.375 Z" id="Path"></path>
                <path d="M51.0625,75.25 L2.6875,75.25 C1.20938,75.25 0,74.0406 0,72.5625 C0,71.0844 1.20938,69.875 2.6875,69.875 L51.0625,69.875 C52.5406,69.875 53.75,71.0844 53.75,72.5625 C53.75,74.0406 52.5406,75.25 51.0625,75.25 Z" id="Path"></path>
            </g>
        </g>
    </g>
</svg>